# xmcd
#
# Track frame offsets: 
#        150
#        2532
#        55947
#        90300
#        124189
#        173389
#
# Disc length: 2888 seconds
#
# Revision: 0
# Processed by: cddbd v1.5.2PL0 Copyright (c) Steve Scherf et al.
# Submitted via: ExactAudioCopy v1.0b3
#
DISCID=370b4606
DTITLE=Gov't Mule - Beacon Theatre 2012-12-31-D3
DYEAR=2012
DGENRE=Blues
TTITLE0=New Years Countdown
TTITLE1=When Love Comes To Town
TTITLE2=To Know You Is To Love You
TTITLE3=How Blue Can You Get?
TTITLE4=I Got Some Help I Don't Need
TTITLE5=Hummingbird
EXTD=
EXTT0=
EXTT1=
EXTT2=
EXTT3=
EXTT4=
EXTT5=
PLAYORDER=
